<svg width="200" height="200" viewBox="0 0 200 200" fill="none" xmlns="http://www.w3.org/2000/svg">
<path d="M29.9518 63.4625C15.6455 97.0847 26.4177 122.242 50.5 144.895C50.5 144.895 54.5 146.895 55.5 149.395C56.5 151.895 55.5 153.395 52.9518 154.395C50.4035 155.395 -6.21692 118.072 11.1399 63.4625C11.1399 63.4625 16.9518 48.3951 24.9518 51.3951C32.9518 54.3951 29.9518 63.4625 29.9518 63.4625Z" fill="#F1EFFD"/>
<path d="M29.9518 63.4625C15.6455 97.0847 26.4177 122.242 50.5 144.895C50.5 144.895 54.5 146.895 55.5 149.395C56.5 151.895 55.5 153.395 52.9518 154.395C50.4035 155.395 -6.21692 118.072 11.1399 63.4625C11.1399 63.4625 16.9518 48.3951 24.9518 51.3951C32.9518 54.3951 29.9518 63.4625 29.9518 63.4625Z" fill="url(#paint0_radial_52_119)" fill-opacity="0.48"/>
<path fill-rule="evenodd" clip-rule="evenodd" d="M178.224 88.5939C183.798 110.909 184.738 136.194 169.71 153.639C155.314 170.351 130.812 168.975 108.745 169.248C86.8817 169.519 62.5919 171.423 48.0288 155.147C33.0199 138.373 33.5926 113.372 39.258 91.5879C44.5686 71.1682 58.3308 54.7781 76.7979 44.5258C96.4343 33.6243 117.699 32.8007 138.289 41.7466C159.297 50.8745 172.679 66.3927 178.224 88.5939Z" fill="url(#paint1_radial_52_119)"/>
<path d="M48.6737 43.9999C56.6737 38.9999 71.3474 50.9998 72.6737 53.4999C74 56 71 66 66.5 70.5C62 75 51.5 80 48.6737 78.9999C45.8474 77.9998 40.6737 48.9999 48.6737 43.9999Z" fill="url(#paint2_linear_52_119)"/>
<path d="M48.6737 43.9999C56.6737 38.9999 71.3474 50.9998 72.6737 53.4999C74 56 71 66 66.5 70.5C62 75 51.5 80 48.6737 78.9999C45.8474 77.9998 40.6737 48.9999 48.6737 43.9999Z" fill="url(#paint3_linear_52_119)" fill-opacity="0.86"/>
<path d="M178.174 48.0001C173.174 42.5001 154.347 51 153.174 54C152 57 154 65 158 69C162 73 168.847 80.0001 172.674 79.0001C176.5 78 183.174 53.5001 178.174 48.0001Z" fill="url(#paint4_linear_52_119)"/>
<path d="M178.174 48.0001C173.174 42.5001 154.347 51 153.174 54C152 57 154 65 158 69C162 73 168.847 80.0001 172.674 79.0001C176.5 78 183.174 53.5001 178.174 48.0001Z" fill="url(#paint5_linear_52_119)" fill-opacity="0.56"/>
<ellipse cx="84" cy="105" rx="11" ry="8" fill="url(#paint6_radial_52_119)"/>
<ellipse cx="84" cy="105" rx="11" ry="8" fill="url(#paint7_radial_52_119)"/>
<ellipse cx="147" cy="105" rx="11" ry="8" fill="url(#paint8_radial_52_119)"/>
<ellipse cx="147" cy="105" rx="11" ry="8" fill="url(#paint9_radial_52_119)"/>
<path d="M72.8233 98.5519L48 94" stroke="url(#paint10_linear_52_119)" stroke-width="2" stroke-linecap="round"/>
<path d="M70.8233 111.637L45.9999 115.188" stroke="url(#paint11_linear_52_119)" stroke-width="2" stroke-linecap="round"/>
<path d="M69.5 105.5L44 104.5" stroke="url(#paint12_linear_52_119)" stroke-width="2" stroke-linecap="round"/>
<path d="M157.577 112.047L182.514 115.925" stroke="url(#paint13_linear_52_119)" stroke-width="2" stroke-linecap="round"/>
<path d="M159.221 98.9124L183.939 94.6897" stroke="url(#paint14_linear_52_119)" stroke-width="2" stroke-linecap="round"/>
<path d="M160.71 105.011L186.228 105.32" stroke="url(#paint15_linear_52_119)" stroke-width="2" stroke-linecap="round"/>
<path d="M83.4766 119.555L83.5 92.4844H72.4609V88.3828H107.523V92.4844H96.4844V119.555H92.3828V92.8359H87.5781V119.555H83.4766Z" fill="black"/>
<path d="M139.477 119.555L139.5 92.4844H128.461V88.3828H163.523V92.4844H152.484V119.555H148.383V92.8359H143.578V119.555H139.477Z" fill="black"/>
<path d="M109.195 107.666C109.195 104.209 110.156 101.648 112.078 99.9844C113.684 98.6016 115.641 97.9102 117.949 97.9102C120.516 97.9102 122.613 98.7539 124.242 100.441C125.871 102.117 126.686 104.438 126.686 107.402C126.686 109.805 126.322 111.697 125.596 113.08C124.881 114.451 123.832 115.518 122.449 116.279C121.078 117.041 119.578 117.422 117.949 117.422C115.336 117.422 113.221 116.584 111.604 114.908C109.998 113.232 109.195 110.818 109.195 107.666ZM112.447 107.666C112.447 110.057 112.969 111.85 114.012 113.045C115.055 114.229 116.367 114.82 117.949 114.82C119.52 114.82 120.826 114.223 121.869 113.027C122.912 111.832 123.434 110.01 123.434 107.561C123.434 105.252 122.906 103.506 121.852 102.322C120.809 101.127 119.508 100.529 117.949 100.529C116.367 100.529 115.055 101.121 114.012 102.305C112.969 103.488 112.447 105.275 112.447 107.666Z" fill="black"/>
<defs>
<radialGradient id="paint0_radial_52_119" cx="0" cy="0" r="1" gradientUnits="userSpaceOnUse" gradientTransform="translate(33.3325 98.5) rotate(-39.2276) scale(29.2535 41.867)">
<stop stop-color="#F1EFFD"/>
<stop offset="1" stop-color="#F04F91"/>
</radialGradient>
<radialGradient id="paint1_radial_52_119" cx="0" cy="0" r="1" gradientUnits="userSpaceOnUse" gradientTransform="translate(143 75.5) rotate(143.734) scale(246.814 230.475)">
<stop stop-color="#F1EFFD"/>
<stop offset="1" stop-color="#F04F91"/>
</radialGradient>
<linearGradient id="paint2_linear_52_119" x1="80.5" y1="88.5" x2="55" y2="54.5" gradientUnits="userSpaceOnUse">
<stop offset="1" stop-color="#F1EFFD"/>
</linearGradient>
<linearGradient id="paint3_linear_52_119" x1="9" y1="57" x2="73" y2="31.5" gradientUnits="userSpaceOnUse">
<stop stop-color="#F04F91"/>
<stop offset="1" stop-color="#F1EFFD"/>
</linearGradient>
<linearGradient id="paint4_linear_52_119" x1="189.452" y1="41.5" x2="160.952" y2="66.5" gradientUnits="userSpaceOnUse">
<stop offset="1" stop-color="#F1EFFD"/>
</linearGradient>
<linearGradient id="paint5_linear_52_119" x1="143" y1="31" x2="184" y2="67" gradientUnits="userSpaceOnUse">
<stop stop-color="#F04F91"/>
<stop offset="1" stop-color="#F1EFFD"/>
</linearGradient>
<radialGradient id="paint6_radial_52_119" cx="0" cy="0" r="1" gradientUnits="userSpaceOnUse" gradientTransform="translate(84 105) rotate(89.1539) scale(8.18555 11.2552)">
<stop stop-color="#F04F91"/>
<stop offset="1" stop-color="#F04F91" stop-opacity="0"/>
</radialGradient>
<radialGradient id="paint7_radial_52_119" cx="0" cy="0" r="1" gradientUnits="userSpaceOnUse" gradientTransform="translate(84 105) rotate(89.1539) scale(8.18555 11.2552)">
<stop stop-color="#F04F91"/>
<stop offset="1" stop-color="#F04F91" stop-opacity="0"/>
</radialGradient>
<radialGradient id="paint8_radial_52_119" cx="0" cy="0" r="1" gradientUnits="userSpaceOnUse" gradientTransform="translate(147 105) rotate(89.1539) scale(8.18555 11.2552)">
<stop stop-color="#F04F91"/>
<stop offset="1" stop-color="#F04F91" stop-opacity="0"/>
</radialGradient>
<radialGradient id="paint9_radial_52_119" cx="0" cy="0" r="1" gradientUnits="userSpaceOnUse" gradientTransform="translate(147 105) rotate(89.1539) scale(8.18555 11.2552)">
<stop stop-color="#F04F91"/>
<stop offset="1" stop-color="#F04F91" stop-opacity="0"/>
</radialGradient>
<linearGradient id="paint10_linear_52_119" x1="49.3798" y1="93.5036" x2="72.0172" y2="97.9115" gradientUnits="userSpaceOnUse">
<stop stop-color="white"/>
<stop offset="1" stop-color="white" stop-opacity="0"/>
</linearGradient>
<linearGradient id="paint11_linear_52_119" x1="46" y1="115.5" x2="70.484" y2="111.404" gradientUnits="userSpaceOnUse">
<stop stop-color="white"/>
<stop offset="1" stop-color="white" stop-opacity="0"/>
</linearGradient>
<linearGradient id="paint12_linear_52_119" x1="44" y1="104" x2="70.0035" y2="104.898" gradientUnits="userSpaceOnUse">
<stop stop-color="white"/>
<stop offset="1" stop-color="white" stop-opacity="0"/>
</linearGradient>
<linearGradient id="paint13_linear_52_119" x1="181.148" y1="116.458" x2="158.4" y2="112.665" gradientUnits="userSpaceOnUse">
<stop stop-color="white"/>
<stop offset="1" stop-color="white" stop-opacity="0"/>
</linearGradient>
<linearGradient id="paint14_linear_52_119" x1="183.931" y1="94.3782" x2="159.567" y2="99.136" gradientUnits="userSpaceOnUse">
<stop stop-color="white"/>
<stop offset="1" stop-color="white" stop-opacity="0"/>
</linearGradient>
<linearGradient id="paint15_linear_52_119" x1="186.242" y1="105.82" x2="160.223" y2="105.627" gradientUnits="userSpaceOnUse">
<stop stop-color="white"/>
<stop offset="1" stop-color="white" stop-opacity="0"/>
</linearGradient>
</defs>
</svg>
