<svg width="200" height="200" viewBox="0 0 200 200" fill="none" xmlns="http://www.w3.org/2000/svg">
<path d="M29.9518 63.4625C15.6455 97.0847 26.4177 122.242 50.5 144.895C50.5 144.895 54.5 146.895 55.5 149.395C56.5 151.895 55.5 153.395 52.9518 154.395C50.4035 155.395 -6.21692 118.072 11.1399 63.4625C11.1399 63.4625 16.9518 48.3951 24.9518 51.3951C32.9518 54.3951 29.9518 63.4625 29.9518 63.4625Z" fill="#F1EFFD"/>
<path d="M29.9518 63.4625C15.6455 97.0847 26.4177 122.242 50.5 144.895C50.5 144.895 54.5 146.895 55.5 149.395C56.5 151.895 55.5 153.395 52.9518 154.395C50.4035 155.395 -6.21692 118.072 11.1399 63.4625C11.1399 63.4625 16.9518 48.3951 24.9518 51.3951C32.9518 54.3951 29.9518 63.4625 29.9518 63.4625Z" fill="url(#paint0_radial_32_94)" fill-opacity="0.48"/>
<path fill-rule="evenodd" clip-rule="evenodd" d="M178.224 88.5939C183.798 110.909 184.738 136.194 169.71 153.639C155.313 170.351 130.812 168.975 108.745 169.248C86.8816 169.519 62.5919 171.423 48.0287 155.147C33.0198 138.373 33.5926 113.372 39.258 91.5879C44.5685 71.1682 58.3308 54.7781 76.7979 44.5258C96.4343 33.6243 117.699 32.8007 138.289 41.7466C159.297 50.8745 172.679 66.3927 178.224 88.5939Z" fill="url(#paint1_radial_32_94)"/>
<path d="M48.6737 43.9999C56.6737 38.9999 71.3474 50.9998 72.6737 53.4999C74 56 71 66 66.5 70.5C62 75 51.5 80 48.6737 78.9999C45.8474 77.9998 40.6737 48.9999 48.6737 43.9999Z" fill="url(#paint2_linear_32_94)"/>
<path d="M48.6737 43.9999C56.6737 38.9999 71.3474 50.9998 72.6737 53.4999C74 56 71 66 66.5 70.5C62 75 51.5 80 48.6737 78.9999C45.8474 77.9998 40.6737 48.9999 48.6737 43.9999Z" fill="url(#paint3_linear_32_94)" fill-opacity="0.86"/>
<path d="M178.174 48.0001C173.174 42.5001 154.347 51 153.174 54C152 57 154 65 158 69C162 73 168.847 80.0001 172.674 79.0001C176.5 78 183.174 53.5001 178.174 48.0001Z" fill="url(#paint4_linear_32_94)"/>
<path d="M178.174 48.0001C173.174 42.5001 154.347 51 153.174 54C152 57 154 65 158 69C162 73 168.847 80.0001 172.674 79.0001C176.5 78 183.174 53.5001 178.174 48.0001Z" fill="url(#paint5_linear_32_94)" fill-opacity="0.56"/>
<path d="M110 111C112.441 111 115.367 106.624 116.916 103.974C117.353 103.226 118.53 103.283 118.895 104.07C120.128 106.727 122.433 111 124.5 111" stroke="#252849" stroke-width="4" stroke-linecap="round"/>
<ellipse cx="84" cy="105" rx="11" ry="8" fill="url(#paint6_radial_32_94)"/>
<ellipse cx="84" cy="105" rx="11" ry="8" fill="url(#paint7_radial_32_94)"/>
<ellipse cx="147" cy="105" rx="11" ry="8" fill="url(#paint8_radial_32_94)"/>
<ellipse cx="147" cy="105" rx="11" ry="8" fill="url(#paint9_radial_32_94)"/>
<path d="M72.8233 98.5519L48 94" stroke="url(#paint10_linear_32_94)" stroke-width="2" stroke-linecap="round"/>
<path d="M70.8233 111.637L45.9999 115.188" stroke="url(#paint11_linear_32_94)" stroke-width="2" stroke-linecap="round"/>
<path d="M69.5 105.5L44 104.5" stroke="url(#paint12_linear_32_94)" stroke-width="2" stroke-linecap="round"/>
<path d="M157.577 112.047L182.514 115.925" stroke="url(#paint13_linear_32_94)" stroke-width="2" stroke-linecap="round"/>
<path d="M159.221 98.9124L183.939 94.6897" stroke="url(#paint14_linear_32_94)" stroke-width="2" stroke-linecap="round"/>
<path d="M160.71 105.011L186.228 105.32" stroke="url(#paint15_linear_32_94)" stroke-width="2" stroke-linecap="round"/>
<path d="M87.5078 78.1406C89.2266 78.1406 90.9141 78.5859 92.5703 79.4766C94.2266 80.3672 95.5156 81.6406 96.4375 83.2969C97.3594 84.9531 97.8203 86.6719 97.8203 88.4531C97.8203 91.3125 96.8125 93.75 94.7969 95.7656C92.7812 97.7812 90.3516 98.7891 87.5078 98.7891C84.6484 98.7891 82.2109 97.7812 80.1953 95.7656C78.1797 93.75 77.1719 91.3125 77.1719 88.4531C77.1719 86.6562 77.6328 84.9375 78.5547 83.2969C79.4766 81.6406 80.7656 80.3672 82.4219 79.4766C84.0781 78.5859 85.7734 78.1406 87.5078 78.1406Z" fill="#252849"/>
<path d="M144.508 78.1406C146.227 78.1406 147.914 78.5859 149.57 79.4766C151.227 80.3672 152.516 81.6406 153.438 83.2969C154.359 84.9531 154.82 86.6719 154.82 88.4531C154.82 91.3125 153.812 93.75 151.797 95.7656C149.781 97.7812 147.352 98.7891 144.508 98.7891C141.648 98.7891 139.211 97.7812 137.195 95.7656C135.18 93.75 134.172 91.3125 134.172 88.4531C134.172 86.6562 134.633 84.9375 135.555 83.2969C136.477 81.6406 137.766 80.3672 139.422 79.4766C141.078 78.5859 142.773 78.1406 144.508 78.1406Z" fill="#252849"/>
<defs>
<radialGradient id="paint0_radial_32_94" cx="0" cy="0" r="1" gradientUnits="userSpaceOnUse" gradientTransform="translate(33.3325 98.5) rotate(-39.2276) scale(29.2535 41.867)">
<stop stop-color="#F1EFFD"/>
<stop offset="1" stop-color="#F04F91"/>
</radialGradient>
<radialGradient id="paint1_radial_32_94" cx="0" cy="0" r="1" gradientUnits="userSpaceOnUse" gradientTransform="translate(143 75.5) rotate(143.734) scale(246.814 230.475)">
<stop stop-color="#F1EFFD"/>
<stop offset="1" stop-color="#F04F91"/>
</radialGradient>
<linearGradient id="paint2_linear_32_94" x1="80.5" y1="88.5" x2="55" y2="54.5" gradientUnits="userSpaceOnUse">
<stop offset="1" stop-color="#F1EFFD"/>
</linearGradient>
<linearGradient id="paint3_linear_32_94" x1="9" y1="57" x2="73" y2="31.5" gradientUnits="userSpaceOnUse">
<stop stop-color="#F04F91"/>
<stop offset="1" stop-color="#F1EFFD"/>
</linearGradient>
<linearGradient id="paint4_linear_32_94" x1="189.452" y1="41.5" x2="160.952" y2="66.5" gradientUnits="userSpaceOnUse">
<stop offset="1" stop-color="#F1EFFD"/>
</linearGradient>
<linearGradient id="paint5_linear_32_94" x1="143" y1="31" x2="184" y2="67" gradientUnits="userSpaceOnUse">
<stop stop-color="#F04F91"/>
<stop offset="1" stop-color="#F1EFFD"/>
</linearGradient>
<radialGradient id="paint6_radial_32_94" cx="0" cy="0" r="1" gradientUnits="userSpaceOnUse" gradientTransform="translate(84 105) rotate(89.1539) scale(8.18555 11.2552)">
<stop stop-color="#F04F91"/>
<stop offset="1" stop-color="#F04F91" stop-opacity="0"/>
</radialGradient>
<radialGradient id="paint7_radial_32_94" cx="0" cy="0" r="1" gradientUnits="userSpaceOnUse" gradientTransform="translate(84 105) rotate(89.1539) scale(8.18555 11.2552)">
<stop stop-color="#F04F91"/>
<stop offset="1" stop-color="#F04F91" stop-opacity="0"/>
</radialGradient>
<radialGradient id="paint8_radial_32_94" cx="0" cy="0" r="1" gradientUnits="userSpaceOnUse" gradientTransform="translate(147 105) rotate(89.1539) scale(8.18555 11.2552)">
<stop stop-color="#F04F91"/>
<stop offset="1" stop-color="#F04F91" stop-opacity="0"/>
</radialGradient>
<radialGradient id="paint9_radial_32_94" cx="0" cy="0" r="1" gradientUnits="userSpaceOnUse" gradientTransform="translate(147 105) rotate(89.1539) scale(8.18555 11.2552)">
<stop stop-color="#F04F91"/>
<stop offset="1" stop-color="#F04F91" stop-opacity="0"/>
</radialGradient>
<linearGradient id="paint10_linear_32_94" x1="49.3798" y1="93.5036" x2="72.0172" y2="97.9115" gradientUnits="userSpaceOnUse">
<stop stop-color="white"/>
<stop offset="1" stop-color="white" stop-opacity="0"/>
</linearGradient>
<linearGradient id="paint11_linear_32_94" x1="46" y1="115.5" x2="70.484" y2="111.404" gradientUnits="userSpaceOnUse">
<stop stop-color="white"/>
<stop offset="1" stop-color="white" stop-opacity="0"/>
</linearGradient>
<linearGradient id="paint12_linear_32_94" x1="44" y1="104" x2="70.0035" y2="104.898" gradientUnits="userSpaceOnUse">
<stop stop-color="white"/>
<stop offset="1" stop-color="white" stop-opacity="0"/>
</linearGradient>
<linearGradient id="paint13_linear_32_94" x1="181.148" y1="116.458" x2="158.4" y2="112.665" gradientUnits="userSpaceOnUse">
<stop stop-color="white"/>
<stop offset="1" stop-color="white" stop-opacity="0"/>
</linearGradient>
<linearGradient id="paint14_linear_32_94" x1="183.931" y1="94.3782" x2="159.567" y2="99.136" gradientUnits="userSpaceOnUse">
<stop stop-color="white"/>
<stop offset="1" stop-color="white" stop-opacity="0"/>
</linearGradient>
<linearGradient id="paint15_linear_32_94" x1="186.242" y1="105.82" x2="160.223" y2="105.627" gradientUnits="userSpaceOnUse">
<stop stop-color="white"/>
<stop offset="1" stop-color="white" stop-opacity="0"/>
</linearGradient>
</defs>
</svg>
