<svg width="200" height="200" viewBox="0 0 200 200" fill="none" xmlns="http://www.w3.org/2000/svg">
<path d="M29.9518 63.4625C15.6455 97.0847 26.4177 122.242 50.5 144.895C50.5 144.895 54.5 146.895 55.5 149.395C56.5 151.895 55.5 153.395 52.9518 154.395C50.4035 155.395 -6.21692 118.072 11.1399 63.4625C11.1399 63.4625 16.9518 48.3951 24.9518 51.3951C32.9518 54.3951 29.9518 63.4625 29.9518 63.4625Z" fill="#F1EFFD"/>
<path d="M29.9518 63.4625C15.6455 97.0847 26.4177 122.242 50.5 144.895C50.5 144.895 54.5 146.895 55.5 149.395C56.5 151.895 55.5 153.395 52.9518 154.395C50.4035 155.395 -6.21692 118.072 11.1399 63.4625C11.1399 63.4625 16.9518 48.3951 24.9518 51.3951C32.9518 54.3951 29.9518 63.4625 29.9518 63.4625Z" fill="url(#paint0_radial_11_78)" fill-opacity="0.48"/>
<path fill-rule="evenodd" clip-rule="evenodd" d="M178.224 88.5939C183.798 110.909 184.738 136.194 169.71 153.639C155.313 170.351 130.812 168.975 108.745 169.248C86.8817 169.519 62.5919 171.423 48.0287 155.147C33.0199 138.373 33.5926 113.372 39.258 91.5879C44.5685 71.1682 58.3308 54.7781 76.7979 44.5258C96.4343 33.6243 117.699 32.8007 138.289 41.7466C159.297 50.8745 172.679 66.3927 178.224 88.5939Z" fill="url(#paint1_radial_11_78)"/>
<path d="M48.6737 43.9999C56.6737 38.9999 71.3474 50.9998 72.6737 53.4999C74 56 71 66 66.5 70.5C62 75 51.5 80 48.6737 78.9999C45.8474 77.9998 40.6737 48.9999 48.6737 43.9999Z" fill="url(#paint2_linear_11_78)"/>
<path d="M48.6737 43.9999C56.6737 38.9999 71.3474 50.9998 72.6737 53.4999C74 56 71 66 66.5 70.5C62 75 51.5 80 48.6737 78.9999C45.8474 77.9998 40.6737 48.9999 48.6737 43.9999Z" fill="url(#paint3_linear_11_78)" fill-opacity="0.86"/>
<path d="M178.174 48.0001C173.174 42.5001 154.347 51 153.174 54C152 57 154 65 158 69C162 73 168.847 80.0001 172.674 79.0001C176.5 78 183.174 53.5001 178.174 48.0001Z" fill="url(#paint4_linear_11_78)"/>
<path d="M178.174 48.0001C173.174 42.5001 154.347 51 153.174 54C152 57 154 65 158 69C162 73 168.847 80.0001 172.674 79.0001C176.5 78 183.174 53.5001 178.174 48.0001Z" fill="url(#paint5_linear_11_78)" fill-opacity="0.56"/>
<ellipse cx="84" cy="105" rx="11" ry="8" fill="url(#paint6_radial_11_78)"/>
<ellipse cx="84" cy="105" rx="11" ry="8" fill="url(#paint7_radial_11_78)"/>
<ellipse cx="147" cy="105" rx="11" ry="8" fill="url(#paint8_radial_11_78)"/>
<ellipse cx="147" cy="105" rx="11" ry="8" fill="url(#paint9_radial_11_78)"/>
<path d="M72.8233 98.5519L48 94" stroke="url(#paint10_linear_11_78)" stroke-width="2" stroke-linecap="round"/>
<path d="M70.8233 111.637L46 115.188" stroke="url(#paint11_linear_11_78)" stroke-width="2" stroke-linecap="round"/>
<path d="M69.5 105.5L44 104.5" stroke="url(#paint12_linear_11_78)" stroke-width="2" stroke-linecap="round"/>
<path d="M157.577 112.047L182.514 115.925" stroke="url(#paint13_linear_11_78)" stroke-width="2" stroke-linecap="round"/>
<path d="M159.221 98.9124L183.939 94.6897" stroke="url(#paint14_linear_11_78)" stroke-width="2" stroke-linecap="round"/>
<path d="M160.71 105.011L186.228 105.32" stroke="url(#paint15_linear_11_78)" stroke-width="2" stroke-linecap="round"/>
<path fill-rule="evenodd" clip-rule="evenodd" d="M83.0145 92C83.2733 96.4617 86.9734 100 91.5 100C96.1944 100 100 96.1944 100 91.5C100 86.8056 96.1944 83 91.5 83C91.3322 83 91.1654 83.0049 91 83.0145V92H83.0145Z" fill="#252849"/>
<path fill-rule="evenodd" clip-rule="evenodd" d="M83.0145 92C83.2733 96.4617 86.9734 100 91.5 100C96.1944 100 100 96.1944 100 91.5C100 86.8056 96.1944 83 91.5 83C91.3322 83 91.1654 83.0049 91 83.0145V92H83.0145Z" fill="#252849"/>
<circle cx="91.5" cy="91.5" r="7.5" stroke="#252849" stroke-width="2"/>
<path fill-rule="evenodd" clip-rule="evenodd" d="M131.014 92C131.273 96.4617 134.973 100 139.5 100C144.194 100 148 96.1944 148 91.5C148 86.8056 144.194 83 139.5 83C139.332 83 139.165 83.0049 139 83.0145V92H131.014Z" fill="#252849"/>
<path fill-rule="evenodd" clip-rule="evenodd" d="M131.014 92C131.273 96.4617 134.973 100 139.5 100C144.194 100 148 96.1944 148 91.5C148 86.8056 144.194 83 139.5 83C139.332 83 139.165 83.0049 139 83.0145V92H131.014Z" fill="#252849"/>
<circle cx="139.5" cy="91.5" r="7.5" stroke="#252849" stroke-width="2"/>
<path d="M110 107V100H124C122.619 110.474 120.706 112.541 114 115.5" stroke="#252849" stroke-width="4" stroke-linecap="square"/>
<defs>
<radialGradient id="paint0_radial_11_78" cx="0" cy="0" r="1" gradientUnits="userSpaceOnUse" gradientTransform="translate(33.3325 98.5) rotate(-39.2276) scale(29.2535 41.867)">
<stop stop-color="#F1EFFD"/>
<stop offset="1" stop-color="#F04F91"/>
</radialGradient>
<radialGradient id="paint1_radial_11_78" cx="0" cy="0" r="1" gradientUnits="userSpaceOnUse" gradientTransform="translate(143 75.5) rotate(143.734) scale(246.814 230.475)">
<stop stop-color="#F1EFFD"/>
<stop offset="1" stop-color="#F04F91"/>
</radialGradient>
<linearGradient id="paint2_linear_11_78" x1="80.5" y1="88.5" x2="55" y2="54.5" gradientUnits="userSpaceOnUse">
<stop offset="1" stop-color="#F1EFFD"/>
</linearGradient>
<linearGradient id="paint3_linear_11_78" x1="9" y1="57" x2="73" y2="31.5" gradientUnits="userSpaceOnUse">
<stop stop-color="#F04F91"/>
<stop offset="1" stop-color="#F1EFFD"/>
</linearGradient>
<linearGradient id="paint4_linear_11_78" x1="189.452" y1="41.5" x2="160.952" y2="66.5" gradientUnits="userSpaceOnUse">
<stop offset="1" stop-color="#F1EFFD"/>
</linearGradient>
<linearGradient id="paint5_linear_11_78" x1="143" y1="31" x2="184" y2="67" gradientUnits="userSpaceOnUse">
<stop stop-color="#F04F91"/>
<stop offset="1" stop-color="#F1EFFD"/>
</linearGradient>
<radialGradient id="paint6_radial_11_78" cx="0" cy="0" r="1" gradientUnits="userSpaceOnUse" gradientTransform="translate(84 105) rotate(89.1539) scale(8.18555 11.2552)">
<stop stop-color="#F04F91"/>
<stop offset="1" stop-color="#F04F91" stop-opacity="0"/>
</radialGradient>
<radialGradient id="paint7_radial_11_78" cx="0" cy="0" r="1" gradientUnits="userSpaceOnUse" gradientTransform="translate(84 105) rotate(89.1539) scale(8.18555 11.2552)">
<stop stop-color="#F04F91"/>
<stop offset="1" stop-color="#F04F91" stop-opacity="0"/>
</radialGradient>
<radialGradient id="paint8_radial_11_78" cx="0" cy="0" r="1" gradientUnits="userSpaceOnUse" gradientTransform="translate(147 105) rotate(89.1539) scale(8.18555 11.2552)">
<stop stop-color="#F04F91"/>
<stop offset="1" stop-color="#F04F91" stop-opacity="0"/>
</radialGradient>
<radialGradient id="paint9_radial_11_78" cx="0" cy="0" r="1" gradientUnits="userSpaceOnUse" gradientTransform="translate(147 105) rotate(89.1539) scale(8.18555 11.2552)">
<stop stop-color="#F04F91"/>
<stop offset="1" stop-color="#F04F91" stop-opacity="0"/>
</radialGradient>
<linearGradient id="paint10_linear_11_78" x1="49.3798" y1="93.5036" x2="72.0172" y2="97.9115" gradientUnits="userSpaceOnUse">
<stop stop-color="white"/>
<stop offset="1" stop-color="white" stop-opacity="0"/>
</linearGradient>
<linearGradient id="paint11_linear_11_78" x1="46" y1="115.5" x2="70.484" y2="111.404" gradientUnits="userSpaceOnUse">
<stop stop-color="white"/>
<stop offset="1" stop-color="white" stop-opacity="0"/>
</linearGradient>
<linearGradient id="paint12_linear_11_78" x1="44" y1="104" x2="70.0035" y2="104.898" gradientUnits="userSpaceOnUse">
<stop stop-color="white"/>
<stop offset="1" stop-color="white" stop-opacity="0"/>
</linearGradient>
<linearGradient id="paint13_linear_11_78" x1="181.148" y1="116.458" x2="158.4" y2="112.665" gradientUnits="userSpaceOnUse">
<stop stop-color="white"/>
<stop offset="1" stop-color="white" stop-opacity="0"/>
</linearGradient>
<linearGradient id="paint14_linear_11_78" x1="183.931" y1="94.3782" x2="159.567" y2="99.136" gradientUnits="userSpaceOnUse">
<stop stop-color="white"/>
<stop offset="1" stop-color="white" stop-opacity="0"/>
</linearGradient>
<linearGradient id="paint15_linear_11_78" x1="186.242" y1="105.82" x2="160.223" y2="105.627" gradientUnits="userSpaceOnUse">
<stop stop-color="white"/>
<stop offset="1" stop-color="white" stop-opacity="0"/>
</linearGradient>
</defs>
</svg>
