<svg width="190" height="170" viewBox="0 0 190 170" fill="none" xmlns="http://www.w3.org/2000/svg">
<path d="M24.9518 42.4625C10.6455 76.0847 21.4177 101.242 45.5 123.895C45.5 123.895 49.5 125.895 50.5 128.395C51.5 130.895 50.5 132.395 47.9518 133.395C45.4035 134.395 -11.2169 97.0719 6.1399 42.4625C6.1399 42.4625 11.9518 27.3951 19.9518 30.3951C27.9518 33.3951 24.9518 42.4625 24.9518 42.4625Z" fill="url(#paint0_radial_10_17)"/>
<path fill-rule="evenodd" clip-rule="evenodd" d="M173.224 67.5939C178.798 89.9093 179.738 115.194 164.71 132.639C150.313 149.351 125.812 147.975 103.745 148.248C81.8816 148.519 57.5919 150.423 43.0287 134.147C28.0198 117.373 28.5926 92.3722 34.258 70.5879C39.5685 50.1682 53.3308 33.7781 71.7979 23.5258C91.4343 12.6243 112.699 11.8007 133.289 20.7466C154.297 29.8745 167.679 45.3927 173.224 67.5939Z" fill="url(#paint1_radial_10_17)"/>
<path d="M43.6737 22.9999C51.6737 17.9999 66.3474 29.9998 67.6737 32.4999C69 35 66 45 61.5 49.5C57 54 46.5 59 43.6737 57.9999C40.8474 56.9998 35.6737 27.9999 43.6737 22.9999Z" fill="url(#paint2_linear_10_17)"/>
<path d="M43.6737 22.9999C51.6737 17.9999 66.3474 29.9998 67.6737 32.4999C69 35 66 45 61.5 49.5C57 54 46.5 59 43.6737 57.9999C40.8474 56.9998 35.6737 27.9999 43.6737 22.9999Z" fill="url(#paint3_linear_10_17)" fill-opacity="0.86"/>
<path d="M173.174 27.0001C168.174 21.5001 149.347 30 148.174 33C147 36 149 44 153 48C157 52 163.847 59.0001 167.674 58.0001C171.5 57 178.174 32.5001 173.174 27.0001Z" fill="url(#paint4_linear_10_17)"/>
<path d="M173.174 27.0001C168.174 21.5001 149.347 30 148.174 33C147 36 149 44 153 48C157 52 163.847 59.0001 167.674 58.0001C171.5 57 178.174 32.5001 173.174 27.0001Z" fill="url(#paint5_linear_10_17)" fill-opacity="0.56"/>
<path d="M105 90C107.441 90 110.367 85.6237 111.916 82.9745C112.353 82.2256 113.53 82.2829 113.895 83.0697C115.128 85.7271 117.433 90 119.5 90" stroke="url(#paint6_radial_10_17)" stroke-width="4" stroke-linecap="round"/>
<circle cx="139" cy="68" r="7" fill="url(#paint7_radial_10_17)"/>
<circle cx="139" cy="68" r="7" stroke="#F04F91"/>
<path d="M135 68.5C135 66 136.5 64 139 64" stroke="white" stroke-width="4" stroke-linecap="round"/>
<circle cx="142.5" cy="70.5" r="1.5" fill="white"/>
<circle cx="83" cy="69" r="7" fill="url(#paint8_radial_10_17)"/>
<circle cx="83" cy="69" r="7" stroke="#F04F91"/>
<path d="M79 69.5C79 67 80.5 65 83 65" stroke="white" stroke-width="4" stroke-linecap="round"/>
<circle cx="86.5" cy="71.5" r="1.5" fill="white"/>
<ellipse cx="79" cy="84" rx="11" ry="8" fill="url(#paint9_radial_10_17)"/>
<ellipse cx="79" cy="84" rx="11" ry="8" fill="url(#paint10_radial_10_17)"/>
<ellipse cx="142" cy="83" rx="11" ry="8" fill="url(#paint11_radial_10_17)"/>
<ellipse cx="142" cy="83" rx="11" ry="8" fill="url(#paint12_radial_10_17)"/>
<defs>
<radialGradient id="paint0_radial_10_17" cx="0" cy="0" r="1" gradientUnits="userSpaceOnUse" gradientTransform="translate(-19.5 168) rotate(-54.5068) scale(149.843 76.2786)">
<stop stop-color="#F04F91"/>
<stop offset="1" stop-color="#F1EFFD"/>
</radialGradient>
<radialGradient id="paint1_radial_10_17" cx="0" cy="0" r="1" gradientUnits="userSpaceOnUse" gradientTransform="translate(138 54.5) rotate(143.734) scale(246.814 230.475)">
<stop stop-color="#F1EFFD"/>
<stop offset="1" stop-color="#F04F91"/>
</radialGradient>
<linearGradient id="paint2_linear_10_17" x1="75.5" y1="67.5" x2="50" y2="33.5" gradientUnits="userSpaceOnUse">
<stop offset="1" stop-color="#F1EFFD"/>
</linearGradient>
<linearGradient id="paint3_linear_10_17" x1="4" y1="36" x2="68" y2="10.5" gradientUnits="userSpaceOnUse">
<stop stop-color="#F04F91"/>
<stop offset="1" stop-color="#F1EFFD"/>
</linearGradient>
<linearGradient id="paint4_linear_10_17" x1="184.452" y1="20.5" x2="155.952" y2="45.5" gradientUnits="userSpaceOnUse">
<stop offset="1" stop-color="#F1EFFD"/>
</linearGradient>
<linearGradient id="paint5_linear_10_17" x1="157" y1="0.500001" x2="165" y2="42" gradientUnits="userSpaceOnUse">
<stop stop-color="#F04F91"/>
<stop offset="1" stop-color="#F1EFFD"/>
</linearGradient>
<radialGradient id="paint6_radial_10_17" cx="0" cy="0" r="1" gradientUnits="userSpaceOnUse" gradientTransform="translate(113 78.5) rotate(93.6914) scale(15.5322 25.0241)">
<stop stop-color="#252849"/>
<stop offset="1" stop-color="#252849" stop-opacity="0"/>
</radialGradient>
<radialGradient id="paint7_radial_10_17" cx="0" cy="0" r="1" gradientUnits="userSpaceOnUse" gradientTransform="translate(139 68) rotate(89.7952) scale(13.5001)">
<stop stop-color="#252849"/>
<stop offset="1" stop-color="#252849" stop-opacity="0"/>
</radialGradient>
<radialGradient id="paint8_radial_10_17" cx="0" cy="0" r="1" gradientUnits="userSpaceOnUse" gradientTransform="translate(83 69) rotate(89.7952) scale(13.5001)">
<stop stop-color="#252849"/>
<stop offset="1" stop-color="#252849" stop-opacity="0"/>
</radialGradient>
<radialGradient id="paint9_radial_10_17" cx="0" cy="0" r="1" gradientUnits="userSpaceOnUse" gradientTransform="translate(79 84) rotate(89.1539) scale(8.18555 11.2552)">
<stop stop-color="#F04F91"/>
<stop offset="1" stop-color="#F04F91" stop-opacity="0"/>
</radialGradient>
<radialGradient id="paint10_radial_10_17" cx="0" cy="0" r="1" gradientUnits="userSpaceOnUse" gradientTransform="translate(79 84) rotate(89.1539) scale(8.18555 11.2552)">
<stop stop-color="#F04F91"/>
<stop offset="1" stop-color="#F04F91" stop-opacity="0"/>
</radialGradient>
<radialGradient id="paint11_radial_10_17" cx="0" cy="0" r="1" gradientUnits="userSpaceOnUse" gradientTransform="translate(142 83) rotate(89.1539) scale(8.18555 11.2552)">
<stop stop-color="#F04F91"/>
<stop offset="1" stop-color="#F04F91" stop-opacity="0"/>
</radialGradient>
<radialGradient id="paint12_radial_10_17" cx="0" cy="0" r="1" gradientUnits="userSpaceOnUse" gradientTransform="translate(142 83) rotate(89.1539) scale(8.18555 11.2552)">
<stop stop-color="#F04F91"/>
<stop offset="1" stop-color="#F04F91" stop-opacity="0"/>
</radialGradient>
</defs>
</svg>
